<svg xmlns="http://www.w3.org/2000/svg" width="498" height="128" fill="none" viewBox="0 0 498 128">
 <symbol id="blog-title" viewBox="0 0 498 128">
<path fill="currentColor" d="M23.438 56.125q0 .063-.032.438-.03.374-.343.812t-1.032.781q-.687.344-2.031.344-1.812 0-2.844-.187-.999-.22-1.5-.563-.468-.374-.594-.812A4.8 4.8 0 0 1 14.97 56q0-4.656 2.344-7.969 2.344-3.344 6.562-5.468 4.25-2.126 10.156-3.126 5.938-1 13.094-1 4.75 0 9.938.313 5.218.312 10.75 1.094 1.593.437 2.187 1.25.625.812.625 1.718 0 .594-.187 1.25-.157.657-.5 1.22a2.9 2.9 0 0 1-.938.937q-.562.343-1.344.343h-.281a6 6 0 0 0-.281-.062 71 71 0 0 0-4.406-.594 87 87 0 0 0-4.97-.437q-2.593-.188-5.374-.25a164 164 0 0 0-5.594-.094q-.844 0-2.031.094-1.157.093-2.25.218-1.25.126-2.594.313 0 .345-.062.781-.063.438-.188 1.219-.124.781-.312 2l-.407 3.156q-.25 1.907-.562 4.625A448 448 0 0 0 37.656 64H55q.75 0 1.156.313.406.28.594.75.188.437.219.968.03.5.031.969 0 1.5-.656 2.25Q55.687 70 55 70q-.219 0-1.437.063-1.22.03-2.97.093a429 429 0 0 0-3.843.156q-2.094.063-4.062.126a579 579 0 0 0-3.563.124q-1.594.032-2.406.032-.562 3.78-1.282 7.281a48.5 48.5 0 0 1-1.812 6.563q-1.062 3.03-2.531 5.53t-3.5 4.282q-2.031 1.782-4.688 2.75-2.656 1-6.093 1-.72 0-1.72-.094A20 20 0 0 1 13 97.594 17 17 0 0 1 10.813 97a8.4 8.4 0 0 1-1.907-.875 5 5 0 0 1-1.375-1.25A2.53 2.53 0 0 1 7 93.281q0-.469.188-1.219.218-.78.625-1.5.436-.718 1.062-1.25.656-.53 1.563-.53 1.03 0 2.156.343 1.155.345 2.375.781 1.218.407 2.5.75 1.28.344 2.593.344 1.032 0 2-.812.969-.844 1.813-2.282.874-1.468 1.656-3.406A55 55 0 0 0 27 80.281a87 87 0 0 0 1.281-4.75q.593-2.469 1.094-4.937h-3.844a8.6 8.6 0 0 1-1.312-.125 7.3 7.3 0 0 1-1.5-.406 3.9 3.9 0 0 1-1.219-.813q-.5-.5-.5-1.25 0-.53.281-1 .281-.469.938-.687l3.062-.657a93 93 0 0 1 2.313-.469q1.03-.218 1.812-.374.781-.157 1.438-.25.75-3.344 1.187-5.813t.75-4.469q.313-2.031.594-3.812.281-1.782.656-3.782-2.718.781-4.718 1.876T26 50.906 24.063 53.5q-.625 1.343-.625 2.625M83.5 86.344q-.72 1-1.937 2.344a22.6 22.6 0 0 1-2.688 2.562q-1.5 1.219-3.219 2.063-1.719.843-3.437.843-2.062 0-3.438-1.312-1.374-1.344-2.375-3.875-.75.875-1.844 1.781a17 17 0 0 1-2.406 1.656 15.5 15.5 0 0 1-2.687 1.188 8.9 8.9 0 0 1-2.813.469q-1.5 0-2.937-.594a8 8 0 0 1-2.5-1.75q-1.095-1.156-1.75-2.781-.657-1.657-.657-3.72 0-2.343.657-4.812.656-2.469 2.031-5.344 1.375-2.874 2.938-4.968a22.4 22.4 0 0 1 3.468-3.656q1.875-1.563 3.938-2.47 2.093-.936 4.25-.937.718 0 1.125.282.406.28.656.656.282.343.531.687t.625.5.75.219q.407.03.813.031h.687q.375-.03.719-.031.469 0 .875.094.405.093.719.406.312.312.469.875.186.562.187 1.531 0 1.5-.312 3.344a187 187 0 0 1-.688 3.75 221 221 0 0 1-.906 4.344q-.531 2.437-.531 4.156 0 1.47.25 2.313.28.812 1.156.812.656 0 1.375-.312.718-.344 1.437-.876.75-.531 1.469-1.187.75-.687 1.406-1.406A48 48 0 0 0 82 79.406zm-26.687-2.469q0 .78.093 1.531.126.72.407 1.313.28.562.75.937.468.344 1.187.344 1.156 0 2.094-1t1.625-2.406 1.093-2.906q.438-1.5.563-2.5l2.344-10.22q-1.281 0-2.5.657-1.22.625-2.313 1.719a16 16 0 0 0-1.968 2.5q-.907 1.406-1.782 3.469t-1.25 3.624a13.7 13.7 0 0 0-.343 2.938M107.125 87q-3 1.75-5.344 3.063a71 71 0 0 1-4.187 2.187q-1.813.874-3.25 1.313Q92.937 94 91.78 94q-2.375 0-4.187-1.437t-3.031-4.126q-1.22-2.718-1.844-6.562-.594-3.844-.594-8.656 0-1.875.156-4T82.72 65a37 37 0 0 1-1.469-.219 13 13 0 0 0-1.094-.219 19 19 0 0 0-1.469-.25A90 90 0 0 0 76.126 64q-.75-.093-1.156-.344a1.86 1.86 0 0 1-.594-.625q-.187-.375-.219-.75a9 9 0 0 1-.031-.687q0-.626.625-.938.594-.344 1.563-.5A12.6 12.6 0 0 1 78.375 60q1.156-.03 2.188 0 1.062.03 1.874.063.844 0 1.157-.063a72 72 0 0 1 2.125-8.156q1.313-3.969 2.906-7.032 1.625-3.093 3.531-4.937 1.906-1.875 4-1.875 1.344 0 2.438.75 1.125.75 1.906 2t1.188 2.938q.437 1.656.437 3.468 0 1.531-.437 3.25a25.4 25.4 0 0 1-1.188 3.469 36 36 0 0 1-1.781 3.563 71 71 0 0 1-2.125 3.593q.281.032.937.032.657 0 1.5.062.876.03 1.875.094 1 .03 1.938.062t1.75.063 1.344.062q.624.032.906.625.28.594.281 1.5 0 1.094-.625 1.782t-1.375.687h-12q-.906 1.25-1.844 2.469-.906 1.187-1.687 2.156a263 263 0 0 0-.219 3.813q-.031.812-.062 1.687l-.063 1.688q-.031.844-.062 1.624v1.438q0 1.688.312 2.844t.906 1.906q.594.719 1.438 1.063.875.312 1.937.312.657 0 1.625-.312a18 18 0 0 0 2.156-.844 32 32 0 0 0 2.469-1.313q1.312-.75 2.563-1.625a38 38 0 0 0 2.437-1.875A24 24 0 0 0 107.125 79zm-10-39.562q0-.345-.062-.75a2.6 2.6 0 0 0-.188-.813 1.46 1.46 0 0 0-.5-.625q-.312-.25-.906-.25-.813 0-1.656 1.438-.813 1.437-1.594 3.687-.75 2.22-1.438 4.906a258 258 0 0 0-1.219 5.219l.938.125q.469.03.969.094.937-1.594 1.937-3.438a55 55 0 0 0 1.844-3.656q.813-1.812 1.344-3.375t.531-2.562m17.687 21.406q1.75-2.188 3.188-3.5Q119.469 64 120.906 64q1.844 0 3.282.813a7.8 7.8 0 0 1 2.437 2.156q1 1.344 1.531 3.094.532 1.75.532 3.656a35 35 0 0 1-.126 3.031 18 18 0 0 1-.468 2.781 15.2 15.2 0 0 1-.906 2.688 17.7 17.7 0 0 1-1.5 2.781q1.125-.656 2.281-1.281a34 34 0 0 0 2.312-1.375 33 33 0 0 0 2.375-1.656 28 28 0 0 0 2.438-2.188l2.406 5.156a30 30 0 0 1-3.438 2.719 27 27 0 0 1-3.5 2.031 30 30 0 0 1-3.75 1.469A49 49 0 0 1 122.688 91q-.532.53-1.469 1.063-.907.531-1.813.968-1.031.5-2.218.969h-.782q-4.875 0-5.281-.125-3.75-1.031-4.719-1.625a71 71 0 0 1-3.437-2.375q.093-2.531.375-5.719.219-2.78.656-6.781.625-5.906 1.188-8.656.28-3.094.75-6.844.375-2.875 1.187-7.156.844-4.312 2.094-7.938 1.28-3.656 2.812-6.5 1.563-2.843 3.375-4.562Q117.25 34 119.375 34q2.375 0 3.813.813a5.7 5.7 0 0 1 2.218 2.218q.781 1.375 1.032 3.25.25 1.876.25 4 0 2.97-1.126 6.125a38.5 38.5 0 0 1-2.874 6.313 62 62 0 0 1-4 6.125q-2.188 3-4.376 5.656zm2.813 2.281a5.5 5.5 0 0 0-2.187.469q-1.095.437-2.032 1.406-.937.938-1.656 2.438-1.407 2.905-1.062 3.562 0 .063-.469 3.75-.187 1.406-.313 2.5-.125 1.25-.218 2.344a25 25 0 0 0 2.062.531q.906.187 1.906.031a12.4 12.4 0 0 1 1.906-.156q1.063 0 1.938-.625t1.562-1.656q.688-1.063 1.188-2.406t.812-2.782q.313-1.468.469-2.875.157-1.437.157-2.625 0-.78-.188-1.469a2.7 2.7 0 0 0-.625-1.25q-.437-.531-1.25-.843-.781-.344-2-.344m3.063-28.625q0-.124-.063-.531a2.7 2.7 0 0 0-.219-.844 2.3 2.3 0 0 0-.468-.781q-.313-.344-.844-.344-.625 0-1.313.906-.656.876-1.312 2.407a34 34 0 0 0-1.281 3.5 102 102 0 0 0-1.219 4.156 123 123 0 0 0-1.125 4.406q-.5 2.25-.938 4.281-.406 2-.718 3.688-.314 1.656-.5 2.687a72 72 0 0 1 1.874-3.375 140 140 0 0 0 2.126-3.625q1.062-1.905 2.062-3.875a44 44 0 0 0 1.844-4.062 32 32 0 0 0 1.375-4.219q.562-2.156.719-4.375m33.5 27.406a16.2 16.2 0 0 1 1.343 3.844q.47 2 .469 4.531 0 1.844-.406 3.719a18.5 18.5 0 0 1-1.188 3.625 16.5 16.5 0 0 1-1.875 3.281A12.8 12.8 0 0 1 150 91.562a11.7 11.7 0 0 1-3.094 1.782 9.8 9.8 0 0 1-3.594.656q-2.75 0-4.718-1.187a10.25 10.25 0 0 1-3.188-3.157q-1.25-1.937-1.844-4.375a22 22 0 0 1-.562-4.937q0-4.125 1.031-7.094 1.032-3 2.938-5.187 1.937-2.22 4.719-3.47 2.78-1.28 6.25-1.28 2.969 0 5.562.937a20 20 0 0 1 4.844 2.469q2.281 1.53 4.218 3.875a209 209 0 0 1 3.657 4.469l-.594 4.406q-.844-1.125-2.281-2.438a119 119 0 0 1-3.063-2.906q-1.593-1.593-3.156-2.687a94 94 0 0 0-2.687-1.876zM144.531 88q1.063 0 2.063-1.062 1-1.094 1.75-2.72.75-1.655 1.187-3.968.47-2.343.469-4.156 0-1.438-.219-2.656-.219-1.251-.656-2.157T148 69.844q-.687-.531-1.656-.531-1.281 0-2.438 1.093-1.156 1.095-2.031 2.813-.875 1.688-1.375 3.75t-.5 4.656q0 1.313.25 2.469t.781 2.031q.531.844 1.407 1.375.875.5 2.093.5m27.531-19.156q1.75-2.188 3.188-3.5Q176.719 64 178.156 64q1.844 0 3.282.813a7.8 7.8 0 0 1 2.437 2.156q1 1.344 1.531 3.094.532 1.75.532 3.656a35 35 0 0 1-.126 3.031 18 18 0 0 1-.468 2.781 15.2 15.2 0 0 1-.906 2.688 17.7 17.7 0 0 1-1.5 2.781q1.125-.656 2.281-1.281a34 34 0 0 0 2.312-1.375 33 33 0 0 0 2.375-1.656 28 28 0 0 0 2.438-2.188l2.406 5.156a30 30 0 0 1-3.438 2.719 27 27 0 0 1-3.5 2.031 30 30 0 0 1-3.75 1.469A49 49 0 0 1 179.938 91q-.532.53-1.469 1.063-.907.531-1.813.968-1.031.5-2.218.969h-.782q-4.875 0-5.281-.125-3.75-1.031-4.719-1.625a71 71 0 0 1-3.437-2.375q.093-2.531.375-5.719.219-2.78.656-6.781.625-5.906 1.188-8.656.28-3.094.75-6.844.375-2.875 1.187-7.156.844-4.312 2.094-7.938 1.28-3.656 2.812-6.5 1.563-2.843 3.375-4.562Q174.5 34 176.625 34q2.375 0 3.813.813a5.7 5.7 0 0 1 2.218 2.218q.781 1.375 1.032 3.25.25 1.876.25 4 0 2.97-1.126 6.125a38.5 38.5 0 0 1-2.874 6.313 62 62 0 0 1-4 6.125q-2.188 3-4.376 5.656zm2.813 2.281a5.5 5.5 0 0 0-2.187.469q-1.095.437-2.032 1.406-.937.938-1.656 2.438-1.407 2.905-1.062 3.562 0 .063-.469 3.75-.187 1.406-.313 2.5-.125 1.25-.218 2.344a25 25 0 0 0 2.062.531q.906.187 1.906.031a12.4 12.4 0 0 1 1.906-.156q1.064 0 1.938-.625.875-.625 1.562-1.656.689-1.063 1.188-2.406.5-1.344.812-2.782.313-1.468.469-2.875.157-1.437.157-2.625 0-.78-.188-1.469a2.7 2.7 0 0 0-.625-1.25q-.437-.531-1.25-.843-.781-.344-2-.344m3.063-28.625q0-.124-.063-.531a2.7 2.7 0 0 0-.219-.844 2.3 2.3 0 0 0-.468-.781q-.313-.344-.844-.344-.625 0-1.313.906-.656.876-1.312 2.407a34 34 0 0 0-1.281 3.5 102 102 0 0 0-1.219 4.156 123 123 0 0 0-1.125 4.406q-.5 2.25-.938 4.281-.406 2-.718 3.688-.314 1.656-.5 2.687a72 72 0 0 1 1.874-3.375 140 140 0 0 0 2.126-3.625Q173 57.126 174 55.156a44 44 0 0 0 1.844-4.062 32 32 0 0 0 1.375-4.219q.562-2.156.719-4.375m27.312 45.656q0-.406.062-1.156.063-.75.188-1.719t.281-2.031q.157-1.094.313-2.156.343-2.5.844-5.375h-.469q-.375.468-.875 1.406a225 225 0 0 0-1.344 2.75 725 725 0 0 0-2.25 4.719 351 351 0 0 1-3.5 7.219q-.625 1.28-1.469 1.75a3.76 3.76 0 0 1-1.812.437q-1.281 0-2.063-.531A3.8 3.8 0 0 1 191.938 92a8 8 0 0 1-.563-2.094 23 23 0 0 1-.125-2.437q0-1.281.156-3.031a96 96 0 0 1 .406-3.688q.25-1.937.719-4.406.5-2.5.844-4.344.375-1.844.75-3.375t.687-2.5q.314-1 .594-1.594.282-.594.625-.906.375-.344.875-.437.5-.126 1.282-.126 1.187 0 1.843.094.688.063 1 .375.344.282.407.844a15 15 0 0 1 0 2.75q-.031.687-.126 1.469-.062.78-.187 1.594-.219 1.562-.25 1.624-.438 2.125-.906 4.75l.343.376q.063-.094.813-1.657a64 64 0 0 1 1.656-3.094A163 163 0 0 1 204.719 69a43 43 0 0 1 1.969-2.969q.906-1.28 1.906-2.125 1.031-.843 2.437-.843 1.313 0 2.25.78.938.75.938 2.157 0 1.219-.157 2.313-.187 1.405-.374 2.124a67 67 0 0 0-.5 2q-.22 1.032-.782 2.97-.094.312-.187.906a2 2 0 0 0-.031.25l.343.374q.063-.094.875-1.624a51 51 0 0 1 1.75-3.094q.969-1.531 2.032-3.219a64 64 0 0 1 2.031-2.969q.906-1.25 1.812-2.094.906-.874 2.219-.874 1.469 0 2.469.78 1.03.75 1.031 2.157 0 2.157-.219 4.094a60 60 0 0 1-.656 4.281 60 60 0 0 0-.656 4.281A36 36 0 0 0 225 82.72q0 1.687.438 2.75.436 1.062 1.062 1.062.657 0 1.375-.281.719-.28 1.469-.719.75-.437 1.468-1a26 26 0 0 0 1.376-1.219 36 36 0 0 0 3.031-3.25l.531 7.376q-1.375 1.094-2.75 2.28-1.344 1.157-2.875 2.126-1.5.938-3.313 1.562Q225 94 222.719 94q-1.125 0-1.907-.719-.75-.75-1.218-2.062-.47-1.312-.688-3.094a37 37 0 0 1-.187-3.875q0-1.968.125-4.156.156-2.22.406-4.469h-.469l-6.343 16.156q-.813 1.313-1.813 1.781-1 .438-2.313.438-.999 0-1.593-.531a4 4 0 0 1-.938-1.406 8.8 8.8 0 0 1-.437-1.907 22 22 0 0 1-.094-2m60.125-1.812q-.719 1-1.937 2.344a22.6 22.6 0 0 1-2.688 2.562q-1.5 1.219-3.219 2.063-1.719.843-3.437.843-2.062 0-3.438-1.312-1.374-1.344-2.375-3.875a15 15 0 0 1-1.843 1.781 17 17 0 0 1-2.407 1.656q-1.281.72-2.687 1.188a8.9 8.9 0 0 1-2.813.469q-1.5 0-2.937-.594a8 8 0 0 1-2.5-1.75q-1.094-1.156-1.75-2.781-.656-1.657-.656-3.72 0-2.343.656-4.812t2.031-5.344 2.937-4.968a22.4 22.4 0 0 1 3.469-3.656q1.875-1.563 3.938-2.47 2.094-.936 4.25-.937.719 0 1.125.282.406.28.656.656.282.343.531.687t.625.5q.375.156.75.219.406.03.813.031h.687q.375-.03.719-.031.469 0 .875.094.406.093.719.406.312.312.469.875.187.562.187 1.531 0 1.5-.313 3.344a184 184 0 0 1-.687 3.75q-.375 1.906-.906 4.344-.531 2.437-.531 4.156 0 1.47.25 2.313.28.812 1.156.812.656 0 1.375-.312a9 9 0 0 0 1.437-.876q.75-.531 1.469-1.187.75-.687 1.406-1.406a48 48 0 0 0 3.094-3.813zm-26.687-2.469q0 .78.093 1.531.125.72.407 1.313.28.562.75.937.468.344 1.187.344 1.156 0 2.094-1t1.625-2.406 1.094-2.906q.437-1.5.562-2.5l2.344-10.22q-1.281 0-2.5.657-1.22.625-2.313 1.719a16 16 0 0 0-1.969 2.5q-.906 1.406-1.781 3.469t-1.25 3.624a13.7 13.7 0 0 0-.343 2.938M263 87.469q0-2.063.25-4.75.25-2.72.625-5.938.375-3.249.844-5.844.468-2.594.906-4.437.344-1.437 1.313-2.406 1-.969 2.687-.969t2.344 1.031.656 2.75q0 .47-.094 1.281-.094.782-.25 1.75-.125.939-.281 1.97a65 65 0 0 0-.312 2.312 50 50 0 0 1-.219 1.937 7 7 0 0 0-.094.844H272l.594-1.094q.406-.78.937-2.219.531-1.437 1.125-2.53.625-1.126 1.156-2.126a63 63 0 0 1 1.626-2.969q1-1.686 2.281-2.312t2.843-.625q1.563 0 2.469 1.313.938 1.312.938 3.624 0 .344-.157 1.157a50 50 0 0 1-.343 1.937q-.22 1.125-.5 2.906-.25 1.782-.469 3.188a68 68 0 0 0-.375 2.781 28 28 0 0 0-.125 2.531q0 1.938.469 3.188.5 1.25 1.531 1.25.375 0 1.062-.281 1.032-.375 1.313-.656 1.375-1.064 1.437-1.032.095.031 2.094-1.25a356 356 0 0 0 5.969-3.906l-.031 7-1.563 1.188q-.187.156-2.937 1.624-3.969 2.125-4.969 2.563-2.437 1.094-3.031 1.25-1.563.5-3.282.5-1.718 0-2.906-2.469Q278 89.031 278 84.25q0-1.875.25-4.031.25-2.188.625-4.688h-.5l-8.187 16.25q-.657 1.313-1.407 1.75-.781.47-1.812.469-1.281 0-2.063-.531A3.8 3.8 0 0 1 263.688 92a8 8 0 0 1-.563-2.094A23 23 0 0 1 263 87.47m31.312-33.563q0-.562.032-1.437.062-.906.125-1.969.061-1.095.156-2.281.094-1.219.187-2.375.22-2.719.5-5.844 0-.937.469-1.656.47-.75 1.219-1.25a5.8 5.8 0 0 1 1.688-.813 6.5 6.5 0 0 1 1.874-.281 5.1 5.1 0 0 1 1.5.219q.72.188 1.282.593.562.407.875 1.063.343.657.343 1.531 0 .374-.062.782-.062.374-.188.812-.437 1.5-.968 3.313a117 117 0 0 1-1.063 3.562 137 137 0 0 1-1.062 3.406 70 70 0 0 1-.907 2.719q-.53 1.5-1.531 2.25-.969.72-1.969.719-1 0-1.75-.75-.75-.782-.75-2.313m18 28.094q1.75-1.5 2.844-2.5a24 24 0 0 0 2.188-2.312A63 63 0 0 0 319.062 75q.656-.844 1.532-2l2.125-2.812q1.25-1.688 3.25-4.188.406-.563.906-1.094a6.7 6.7 0 0 1 1.094-.937q.624-.438 1.343-.688a4.7 4.7 0 0 1 1.657-.281q1.5 0 2.312.344.813.312 1.188.781t.437 1q.063.5.063.875 0 .75-.594 1.656a17 17 0 0 1-1.313 1.75 61 61 0 0 1-1.374 1.563q-.626.687-.719 1.031 0 .97.125 1.781.156.782.375 1.563.25.75.5 1.625.25.844.469 1.969.25 1.124.062 3.093a50 50 0 0 0-.156 3.969q1.125-.75 2.406-1.344 1.312-.625 2.719-1.281a62 62 0 0 0 2.875-1.437q1.5-.813 3-1.938l.031 7q-1.938 1.5-4.5 2.813a42.6 42.6 0 0 1-5.344 2.312 41.5 41.5 0 0 1-5.656 1.594q-2.844.562-5.406.562a16.3 16.3 0 0 1-3.438-.344q-1.594-.344-2.812-1.062a6.14 6.14 0 0 1-1.938-1.937q-.75-1.187-.906-2.876a6 6 0 0 1-.875.126q-.407.03-.812.03-.5 0-.938-.03a1.7 1.7 0 0 1-.75-.22q-.312-.218-.5-.656-.188-.468-.188-1.312 0-.75.376-1.375.375-.656.874-1.156a9.5 9.5 0 0 1 1-.875q.501-.375.75-.594m4 4q.375 0 .813.469.47.468 1.063 1.031t1.374 1.031q.782.47 1.782.469 1.218 0 2-.406.811-.406 1.281-1.063.469-.687.656-1.562.188-.907.188-1.875 0-.844-.125-1.719-.094-.875.031-2.156.156-1.313-.063-2-.187-.72-.343-1.219z"/><path fill="#C72F1C" d="M373.188 52.438q-2.032 3.688-3.626 5.53-1.594 1.844-2.593 1.844-1.375 0-1.375-3.156 0-3.062.875-5.5.874-2.437 2.469-4.312a14.5 14.5 0 0 1 3.718-3.219 22.5 22.5 0 0 1 4.75-2.187 30.4 30.4 0 0 1 5.469-1.282 42 42 0 0 1 5.906-.406q3.531 0 7.094.531 3.562.5 6.844 1.438A40 40 0 0 1 408.844 44q2.844 1.312 4.937 2.938 2.125 1.593 3.313 3.468 1.218 1.875 1.218 3.907 0 2.406-1.062 4.75-1.031 2.343-3.281 4.25-2.219 1.874-5.719 3.093-3.469 1.219-8.344 1.313 3.094 0 5.406 1 2.313.969 3.876 2.656 1.562 1.657 2.343 4 .781 2.313.781 4.719 0 1.969-.531 4A16.2 16.2 0 0 1 410.188 88a17.6 17.6 0 0 1-2.657 3.531q-1.593 1.625-3.75 2.844-2.125 1.22-4.812 1.906-2.688.72-5.907.719-2.031 0-4.281-.281a52 52 0 0 1-4.562-.719 54 54 0 0 1-4.5-1.062 59 59 0 0 1-4.188-1.344 5.3 5.3 0 0 1-1.562-.656q-.657-.438-.657-1.563 0-5.187.25-10.625.282-5.437 1.094-10.75.813-5.343 2.188-9.281 1.374-3.937 3.906-7.657 2.219-1.53 4.031-1.53 2.281 0 3.813 2.562a21.7 21.7 0 0 0-2.469 4.312q-1 2.376-1.531 4.219t-.969 4.563q-.407 2.718-.656 5.312-.156 1.47-.281 3.281l-.188 3.5a188 188 0 0 0-.156 3.438 174 174 0 0 0-.032 3.25v.687q0 .438.063.906.094.47.219.876.124.375.375.562a36 36 0 0 0 4.093 1.063q2.188.437 4.376.437 2.655 0 5.156-.625 2.5-.656 4.437-2.031a10.4 10.4 0 0 0 3.094-3.563q1.188-2.187 1.187-5.562 0-1.813-.687-3a6.3 6.3 0 0 0-1.813-2.031 8.8 8.8 0 0 0-2.531-1.282 31 31 0 0 0-2.906-.875q-1.469-.406-2.906-.781a13.3 13.3 0 0 1-2.531-.937q-1.094-.594-1.782-1.438-.687-.874-.687-2.25a9 9 0 0 1 .062-1.125q.094-.5.375-.812.313-.313.875-.47.594-.155 1.594-.156 1.344 0 2.437.126 1.125.093 2.407.093 3 0 5.406-.718 2.438-.75 4.125-2 1.719-1.251 2.625-2.907a7.3 7.3 0 0 0 .937-3.593q0-1.25-.718-2.282-.718-1.062-2.032-1.875-1.28-.843-3.031-1.468a26.6 26.6 0 0 0-3.812-1.032 35 35 0 0 0-4.344-.625 49 49 0 0 0-4.625-.218q-3.781 0-5.875.25a34 34 0 0 0-5.375 1q-2.47.656-4.406 1.718-1.907 1.063-2.906 2.407M425.156 94q-1.687 0-3.156-1.469-1.437-1.5-2.531-4-1.063-2.5-1.688-5.781a39.3 39.3 0 0 1-.593-6.937q0-2.782.406-6.032a70 70 0 0 1 1.187-6.75 99 99 0 0 1 1.844-6.968 77 77 0 0 1 2.437-6.72 58 58 0 0 1 2.969-6q1.594-2.812 3.344-4.874 1.75-2.094 3.656-3.282Q434.938 34 436.906 34q1.344 0 2.219.625a4.1 4.1 0 0 1 1.375 1.594q.5 1 .688 2.281.218 1.25.218 2.563 0 2.937-.687 6a44 44 0 0 1-1.813 6.124 67 67 0 0 1-2.625 6.157 189 189 0 0 1-3.125 6.156 406 406 0 0 1-3.281 6 201 201 0 0 0-3.063 5.75q-.156.313-.343.813a25 25 0 0 0-.313 1.093q-.156.562-.312 1.219t-.25 1.281v.438q0 .812.156 1.594.188.75.438 1.374.249.594.531.97.28.343.531.343.594 0 1.344-.25a13 13 0 0 0 1.625-.656A31 31 0 0 0 432 84.5q.906-.562 1.75-1.125a61 61 0 0 0 4.125-3.031l2.563 6.562a65 65 0 0 1-5.5 3.563q-1.188.656-2.469 1.312-1.25.626-2.531 1.125-1.282.5-2.5.813-1.219.28-2.282.281m.032-25a131 131 0 0 0 2.968-5.625 101 101 0 0 0 3-6.437 73 73 0 0 0 2.438-6.594q1.031-3.312 1.312-6.157 0-.906-.062-1.53-.031-.657-.282-.657-.906 0-1.968 1.188-1.032 1.155-2.094 3.156-1.031 2-2 4.656a63 63 0 0 0-1.688 5.656q-.75 3-1.187 6.188a45 45 0 0 0-.437 6.156m29 .906a16.2 16.2 0 0 1 1.343 3.844q.47 2 .469 4.531 0 1.844-.406 3.719a18.5 18.5 0 0 1-1.188 3.625 16.5 16.5 0 0 1-1.875 3.281A12.8 12.8 0 0 1 450 91.562a11.7 11.7 0 0 1-3.094 1.782 9.8 9.8 0 0 1-3.594.656q-2.75 0-4.718-1.187a10.25 10.25 0 0 1-3.188-3.157q-1.25-1.937-1.844-4.375a22 22 0 0 1-.562-4.937q0-4.125 1.031-7.094 1.032-3 2.938-5.187 1.936-2.22 4.719-3.47 2.78-1.28 6.25-1.28 2.969 0 5.562.937a20 20 0 0 1 4.844 2.469q2.281 1.53 4.218 3.875a209 209 0 0 1 3.657 4.469l-.594 4.406q-.844-1.125-2.281-2.438a119 119 0 0 1-3.063-2.906q-1.593-1.593-3.156-2.687a94 94 0 0 0-2.687-1.876zM444.531 88q1.063 0 2.063-1.062 1-1.094 1.75-2.72.75-1.655 1.187-3.968.47-2.343.469-4.156 0-1.438-.219-2.656-.218-1.251-.656-2.157T448 69.844q-.687-.531-1.656-.531-1.281 0-2.438 1.093-1.156 1.095-2.031 2.813-.875 1.688-1.375 3.75t-.5 4.656q0 1.313.25 2.469t.781 2.031q.531.844 1.407 1.375.875.5 2.093.5m23.875 35q-1.593 0-2.937-.375a8.4 8.4 0 0 1-2.5-1.094q-1.125-.719-1.844-2.031-.687-1.313-.844-3.062-.25-3.282 1.813-6.969a144 144 0 0 0 1.625-2.875q.468-.813 1.469-2.313a29 29 0 0 1 2.093-2.656 203 203 0 0 1 3.594-3.969 60 60 0 0 1 3.406-3.187l.625-3.75q-3.5 3.344-6.812 3.344-2.438 0-4.5-1.47-2.031-1.467-3.063-3.656-1.875-3.906-.093-9.124 1.625-4.876 3.281-8.032A19.2 19.2 0 0 1 468 66.25q3.813-3.405 7.406-3.406 1.626 0 2.375.906.095.095.281.375.189.25.25.313.094.061.282.25.187.186.344.25.156.03.406.124.25.095.562.126.313.03.719.03l1.375-.03q1.406 0 1.938.843.187.344.406.906.375.97.094 6.407-.095 1.687-.813 4.187-.687 2.5-.906 5.563a347 347 0 0 1-.688 7.969q.906-.532 1.938-1.313 3.687-2.781 8.343-10.344l2.032 6.938q-.876 1.75-3.094 4.031-2.25 2.25-3.812 3.469-.282.188-.438.281-3 1.938-4.344 2.844-.844.563-1.156 2.031t-.688 5.5q-.124 1.157-.187 1.781a37 37 0 0 1-.344 2.813 30 30 0 0 1-.687 3.094 23 23 0 0 1-1.032 3.187 15.7 15.7 0 0 1-1.562 2.906q-.937 1.469-2.125 2.469t-2.844 1.625-3.625.625m-.781-42.312q-.594 3.968.563 6 .75 1.311 1.968 1.312 2.125 0 3.532-3.406 1.094-2.688 1.218-5.406l2.344-10.407q-3.625 0-6.375 4.875-2.969 5.188-3.25 7.031m6.75 21.312q-2.187 1.563-4.313 5-2.124 3.468-3.374 7.031Q465.656 117 467.75 117q.75 0 1.312-.188a2.7 2.7 0 0 0 1.094-.687q.5-.469.875-1.031.376-.563.781-1.625.438-1.064.782-2.094.344-1 .812-2.687a13 13 0 0 0 .438-2q.187-1.095.344-2.688.156-1.562.187-2"/>
</symbol>
</svg>