<svg width="32" height="32" viewBox="0 0 32 32" fill="none" xmlns="http://www.w3.org/2000/svg">
<path d="M28.853 10.5656H26.3218V28.9031L19.403 26.4843L20.753 25.9781V10.5656H14.9593V9.77808H20.753V2.6062H26.3218V9.77808H29.1343L28.853 10.5656ZM10.2624 4.37808H13.6374V28.5656L7.25303 26.4L8.71553 25.5843V18.525H5.28428L5.00303 28.3968L4.10303 28.1718L4.80615 4.37808H5.03115H5.70615H8.71553H10.2624ZM5.67803 5.16558L5.50928 11.0718H8.71553V5.16558H5.67803ZM8.71553 17.7656V11.8593H5.48115L5.3124 17.7656H8.71553ZM17.5468 14.2781C18.0905 14.2781 18.5499 14.475 18.9249 14.8687C19.3187 15.2437 19.5155 15.7031 19.5155 16.2468C19.5155 16.7906 19.3187 17.25 18.9249 17.625C18.5499 18 18.0905 18.1875 17.5468 18.1875C17.0218 18.1875 16.5624 18 16.1687 17.625C15.7937 17.2312 15.6062 16.7718 15.6062 16.2468C15.6062 15.7031 15.7937 15.2437 16.1687 14.8687C16.5437 14.475 17.003 14.2781 17.5468 14.2781Z" fill="#B82719"/>
</svg>
