<svg xmlns="http://www.w3.org/2000/svg">
    <symbol id="icon-comment" viewBox="0 0 1024 1024" fill="currentColor">
        <path d="M573 421c-23.1 0-41 17.9-41 40s17.9 40 41 40c21.1 0 39-17.9 39-40s-17.9-40-39-40zM293 421c-23.1 0-41 17.9-41 40s17.9 40 41 40c21.1 0 39-17.9 39-40s-17.9-40-39-40z" p-id="13138"></path>
        <path d="M894 345c-48.1-66-115.3-110.1-189-130v0.1c-17.1-19-36.4-36.5-58-52.1-163.7-119-393.5-82.7-513 81-96.3 133-92.2 311.9 6 439l0.8 132.6c0 3.2 0.5 6.4 1.5 9.4 5.3 16.9 23.3 26.2 40.1 20.9L309 806c33.5 11.9 68.1 18.7 102.5 20.6l-0.5 0.4c89.1 64.9 205.9 84.4 313 49l127.1 41.4c3.2 1 6.5 1.6 9.9 1.6 17.7 0 32-14.3 32-32V753c88.1-119.6 90.4-284.9 1-408zM323 735l-12-5-99 31-1-104-8-9c-84.6-103.2-90.2-251.9-11-361 96.4-132.2 281.2-161.4 413-66 132.2 96.1 161.5 280.6 66 412-80.1 109.9-223.5 150.5-348 102z m505-17l-8 10 1 104-98-33-12 5c-56 20.8-115.7 22.5-171 7l-0.2-0.1C613.7 788.2 680.7 742.2 729 676c76.4-105.3 88.8-237.6 44.4-350.4l0.6 0.4c23 16.5 44.1 37.1 62 62 72.6 99.6 68.5 235.2-8 330z" p-id="13139"></path>
        <path d="M433 421c-23.1 0-41 17.9-41 40s17.9 40 41 40c21.1 0 39-17.9 39-40s-17.9-40-39-40z" p-id="13140"></path>
    </symbol>
    <symbol id="icon-next" viewBox = "0 0 24 24" fill = "currentColor">
        <path stroke="none" d="M0 0h24v24H0z" fill="none"></path>
        <path d="M12.089 3.634a2 2 0 0 0 -1.089 1.78l-.001 2.586h-6.999a2 2 0 0 0 -2 2v4l.005 .15a2 2 0 0 0 1.995 1.85l6.999 -.001l.001 2.587a2 2 0 0 0 3.414 1.414l6.586 -6.586a2 2 0 0 0 0 -2.828l-6.586 -6.586a2 2 0 0 0 -2.18 -.434l-.145 .068z" stroke-width="0" fill="currentColor"></path>
    </symbol >
    <symbol id="icon-previous" viewBox = "0 0 24 24" fill = "currentColor">
        <path stroke="none" d="M0 0h24v24H0z" fill="none"></path>
        <path d="M9.586 4l-6.586 6.586a2 2 0 0 0 0 2.828l6.586 6.586a2 2 0 0 0 2.18 .434l.145 -.068a2 2 0 0 0 1.089 -1.78v-2.586h7a2 2 0 0 0 2 -2v-4l-.005 -.15a2 2 0 0 0 -1.995 -1.85l-7 -.001v-2.585a2 2 0 0 0 -3.414 -1.414z" stroke-width="0" fill="currentColor"></path>
    </symbol>
    <symbol id="icon-bluesky" viewBox = "0 0 24 24" fill = "currentColor">
        <path d="M4.9 3.02725C5.6 3.12725 6.4 3.52725 7.5 4.22725C9.3 5.62725 10.8 7.32725 12 9.22726C13.2 7.42725 14.7 5.62725 16.5 4.32725C17.5 3.62725 18.4 3.22725 19.1 3.12725C19.9 3.02725 20.4 3.22725 20.7 3.32725C21.7 3.72725 22 4.92725 22 5.92725C22 6.12725 21.9 7.22725 21.8 8.32725C21.7 8.82725 21.7 9.42726 21.6 9.92726C21.5 10.3273 21.5 10.8273 21.4 11.0273C21.1 12.2273 20.3 13.0273 19.4 13.5273C20.3 14.2273 20.7 15.4273 20.3 16.5273C19.7 18.4273 17.6 20.9273 15.5 21.1273C13.7 21.3273 12.6 19.8273 11.9 18.3273C11.2 19.7273 10.1 21.2273 8.3 21.1273C6.2 20.9273 4.1 18.4273 3.5 16.5273C3.2 15.4273 3.5 14.2273 4.4 13.5273C3.5 13.0273 2.8 12.1273 2.4 11.0273C2.3 10.7273 2.3 10.3273 2.2 9.92726C2.1 9.42726 2.1 8.92725 2 8.32725C2.1 7.12725 2 6.02725 2 5.82725C2 4.82725 2.3 3.62725 3.3 3.22725C3.6 3.12725 4.1 2.92725 4.9 3.02725ZM4 6.52725C4.1 7.32725 4.2 8.62725 4.3 9.52725C4.3 9.82725 4.4 10.0273 4.4 10.3273C4.8 11.6273 6.3 12.4273 8.1 12.2273C8.6 12.1273 9.1 12.5273 9.2 13.1273C9.3 13.6273 8.9 14.1273 8.4 14.2273C7.6 14.3273 5.1 14.6273 5.5 15.8273C5.9 17.0273 7.3 18.9273 8.6 19.0273C9.5 19.1273 10.1 17.6273 10.4 17.0273C10.7 16.3273 10.9 15.6273 11.1 15.0273C11.2 14.6273 11.6 14.3273 12.1 14.3273C12.6 14.3273 12.9 14.6273 13.1 15.0273C13.3 15.6273 13.5 16.3273 13.8 17.0273C14.1 17.7273 14.6 19.1273 15.6 19.0273C16.9 18.9273 18.4 16.9273 18.7 15.8273C19.1 14.5273 16.5 14.3273 15.8 14.2273C15.3 14.1273 14.9 13.6273 15 13.1273C15.1 12.6273 15.6 12.2273 16.1 12.2273C17.9 12.4273 19.4 11.7273 19.8 10.3273C19.9 10.0273 19.9 9.82725 19.9 9.52725C20 8.62725 20.1 7.32725 20.2 6.52725C20.2 6.02725 20.4 4.92725 19.7 5.02725C19.4 5.02725 18.9 5.22725 18 5.92725C15.7 7.32725 14 9.42725 12.9 11.6273C12.7 11.9273 12.4 12.1273 12 12.1273C11.6 12.1273 11.3 11.9273 11.1 11.6273C10 9.42725 8.3 7.32725 6.3 5.92725C5.4 5.32725 4.9 5.12725 4.6 5.02725C3.8 4.92725 4 6.02725 4 6.52725Z" fill="currentColor"></path>
    </symbol>
    <symbol id="icon-email" viewBox="0 0 1024 1024" fill="currentColor">
        <path d="M874.666667 181.333333H149.333333c-40.533333 0-74.666667 34.133333-74.666666 74.666667v512c0 40.533333 34.133333 74.666667 74.666666 74.666667h725.333334c40.533333 0 74.666667-34.133333 74.666666-74.666667V256c0-40.533333-34.133333-74.666667-74.666666-74.666667z m-725.333334 64h725.333334c6.4 0 10.666667 4.266667 10.666666 10.666667v25.6L512 516.266667l-373.333333-234.666667V256c0-6.4 4.266667-10.666667 10.666666-10.666667z m725.333334 533.333334H149.333333c-6.4 0-10.666667-4.266667-10.666666-10.666667V356.266667l356.266666 224c4.266667 4.266667 10.666667 4.266667 17.066667 4.266666s12.8-2.133333 17.066667-4.266666l356.266666-224V768c0 6.4-4.266667 10.666667-10.666666 10.666667z"></path>
    </symbol>
    <symbol id="icon-facebook" viewBox="0 0 1024 1024" fill="currentColor" stroke="currentColor">
        <path d="M767.428571 6.857143v150.857143h-89.714285q-49.142857 0-66.285715 20.571428t-17.142857 61.714286v108h167.428572l-22.285715 169.142857h-145.142857v433.714286H419.428571V517.142857H273.714286V348h145.714285V223.428571q0-106.285714 59.428572-164.857142T637.142857 0q84 0 130.285714 6.857143z" p-id="4213"></path>
    </symbol>
    <symbol id="icon-linkedin" viewBox="0 0 15 15" fill="currentColor">
        <path fill-rule="evenodd" d="M7.979 5v1.586a3.5 3.5 0 0 1 3.082-1.574C14.3 5.012 15 7.03 15 9.655V15h-3v-4.738c0-1.13-.229-2.584-1.995-2.584-1.713 0-2.005 1.23-2.005 2.5V15H5.009V5h2.97ZM3 2.487a1.5 1.5 0 1 1-3 0 1.5 1.5 0 0 1 3 0Z" clip-rule="evenodd">
        </path>
        <path d="M3 5.012H0V15h3V5.012Z"></path>
    </symbol>
    <symbol id="icon-twitter" viewBox = "0 0 24 24">
        <path stroke="none" d="M0 0h24v24H0z" fill="none"></path>
        <path d="M4 4l11.733 16h4.267l-11.733 -16z"></path>
        <path d="M4 20l6.768 -6.768m2.46 -2.46l6.772 -6.772"></path>
    </symbol>
    <symbol id="icon-weibo" viewBox="0 0 1024 1024" fill="currentColor" stroke="currentColor">
        <path d="M457.3 543c-68.1-17.7-145 16.2-174.6 76.2-30.1 61.2-1 129.1 67.8 151.3 71.2 23 155.2-12.2 184.4-78.3 28.7-64.6-7.2-131-77.6-149.2z m-52 156.2c-13.8 22.1-43.5 31.7-65.8 21.6-22-10-28.5-35.7-14.6-57.2 13.7-21.4 42.3-31 64.4-21.7 22.4 9.5 29.6 35 16 57.3z m45.5-58.5c-5 8.6-16.1 12.7-24.7 9.1-8.5-3.5-11.2-13.1-6.4-21.5 5-8.4 15.6-12.4 24.1-9.1 8.7 3.2 11.8 12.9 7 21.5zM785.3 443.5c15 4.8 31-3.4 35.9-18.3 11.8-36.6 4.4-78.4-23.2-109-27.6-30.6-68.4-42.3-106-34.3-15.4 3.3-25.2 18.4-21.9 33.8 3.3 15.3 18.4 25.2 33.8 21.8 18.4-3.9 38.3 1.8 51.9 16.7 13.5 15 17.2 35.4 11.3 53.3-4.9 15.1 3.2 31.1 18.2 36z"></path>
        <path d="M885.1 237.5c-56.7-62.9-140.4-86.9-217.7-70.5-17.9 3.8-29.3 21.4-25.4 39.3 3.8 17.9 21.4 29.3 39.3 25.5 55-11.7 114.4 5.4 154.8 50.1 40.3 44.7 51.2 105.7 34 159.1-5.6 17.4 3.9 36 21.3 41.7 17.4 5.6 36-3.9 41.6-21.2v-0.1c24.1-75.4 8.9-161.1-47.9-223.9zM729 499c-12.2-3.6-20.5-6.1-14.1-22.1 13.8-34.7 15.2-64.7 0.3-86-28-40.1-104.8-37.9-192.8-1.1 0 0-27.6 12.1-20.6-9.8 13.5-43.5 11.5-79.9-9.6-101-47.7-47.8-174.6 1.8-283.5 110.6C127.3 471.1 80 557.5 80 632.2 80 775.1 263.2 862 442.5 862c235 0 391.3-136.5 391.3-245 0-65.5-55.2-102.6-104.8-118zM443 810.8c-143 14.1-266.5-50.5-275.8-144.5-9.3-93.9 99.2-181.5 242.2-195.6 143-14.2 266.5 50.5 275.8 144.4C694.4 709 586 796.6 443 810.8z"></path>
    </symbol>
    <symbol id="icon-toc" viewBox="0 0 1024 1024" fill="currentColor" stroke="currentColor">
        <path d="M170.666667 277.333333a85.333333 85.333333 0 1 0 0-170.666666 85.333333 85.333333 0 0 0 0 170.666666zM405.333333 128a64 64 0 1 0 0 128h469.333334a64 64 0 0 0 0-128h-469.333334zM341.333333 490.666667A64 64 0 0 1 405.333333 426.666667h469.333334a64 64 0 0 1 0 128h-469.333334A64 64 0 0 1 341.333333 490.666667z m0 298.666666A64 64 0 0 1 405.333333 725.333333h469.333334a64 64 0 0 1 0 128h-469.333334A64 64 0 0 1 341.333333 789.333333z m-85.333333-298.666666a85.333333 85.333333 0 1 1-170.666667 0 85.333333 85.333333 0 0 1 170.666667 0z m-85.333333 384a85.333333 85.333333 0 1 0 0-170.666667 85.333333 85.333333 0 0 0 0 170.666667z"></path>
    </symbol>
    <symbol id="icon-top" viewBox="0 0 1024 1024" fill="currentColor" stroke="currentColor">
        <path d="M862.464 161.536l-700.928 0c-30.976 0-56.096-25.12-56.096-56.096l0-28.064c0-30.944 25.12-56.064 56.096-56.064l700.896 0c30.976 0 56.096 25.12 56.096 56.064l0 28.032c0 31.008-25.12 56.096-56.096 56.096l0 0 0 0zM138.528 531.68c0 0 306.816-245.792 309.888-248.864 14.304-13.888 31.904-22.368 49.952-25.312 1.76-0.32 3.488-0.608 5.248-0.8 2.816-0.32 5.6-0.352 8.384-0.352 2.816-0.032 5.568 0.032 8.352 0.352 1.792 0.192 3.552 0.48 5.28 0.8 18.048 2.976 35.616 11.424 49.92 25.312 3.104 3.008 309.856 248.864 309.856 248.864 33.152 32.224 30.304 65.44-2.784 97.696s-77.376 3.04-110.496-29.216l-190.08-150.432 0 496.864c0 31.008-25.088 56.096-56.096 56.096l-28 0c-30.976 0-56.096-25.12-56.096-56.096l0-496.864-190.048 150.432c-33.088 32.288-77.408 61.536-110.496 29.216-33.056-32.256-35.872-65.44-2.816-97.696l0 0 0 0z"></path>
    </symbol>
    <symbol id="icon-mastodon" viewBox = "0 0 24 24">
        <path stroke="none" d="M0 0h24v24H0z" fill="none"></path>
        <path d="M18.648 15.254c-1.816 1.763 -6.648 1.626 -6.648 1.626a18.262 18.262 0 0 1 -3.288 -.256c1.127 1.985 4.12 2.81 8.982 2.475c-1.945 2.013 -13.598 5.257 -13.668 -7.636l-.026 -1.154c0 -3.036 .023 -4.115 1.352 -5.633c1.671 -1.91 6.648 -1.666 6.648 -1.666s4.977 -.243 6.648 1.667c1.329 1.518 1.352 2.597 1.352 5.633s-.456 4.074 -1.352 4.944z"></path>
        <path d="M12 11.204v-2.926c0 -1.258 -.895 -2.278 -2 -2.278s-2 1.02 -2 2.278v4.722m4 -4.722c0 -1.258 .895 -2.278 2 -2.278s2 1.02 2 2.278v4.722"></path>
    </symbol>
    <symbol id="icon-linkedin-small" viewBox = "0 0 24 24">
        <path stroke="none" d="M0 0h24v24H0z" fill="none"></path>
        <path d="M4 4m0 2a2 2 0 0 1 2 -2h12a2 2 0 0 1 2 2v12a2 2 0 0 1 -2 2h-12a2 2 0 0 1 -2 -2z"></path>
        <path d="M8 11l0 5"></path>
        <path d="M8 8l0 .01"></path>
        <path d="M12 16l0 -5"></path>
        <path d="M16 16v-3a2 2 0 0 0 -4 0"></path>
    </symbol>
    <symbol id="icon-jike" viewBox = "0 0 24 24">
        <path fill-rule="evenodd" clip-rule="evenodd" d="M15.5 2C15.5 5.75724 15.5 9.5145 15.5 13.2717C15.4955 14.1536 15.3577 15.0159 15.087 15.8587C14.4465 17.574 13.3451 19.0214 11.7826 20.2011C10.7576 20.9665 9.65618 21.6132 8.47826 22.1413C7.49639 21.1998 6.67031 20.1527 6 19C6.02235 18.8259 6.09118 18.672 6.20652 18.538C8.45212 17.5461 9.89777 15.9755 10.5435 13.8261C10.7455 9.88902 10.8143 5.94697 10.75 2C12.3333 2 13.9167 2 15.5 2Z" />
    </symbol>
    <symbol id="icon-github" viewBox = "0 0 24 24">
        <path stroke="none" d="M0 0h24v24H0z" fill="none"></path>
        <path d="M5.315 2.1c.791 -.113 1.9 .145 3.333 .966l.272 .161l.16 .1l.397 -.083a13.3 13.3 0 0 1 4.59 -.08l.456 .08l.396 .083l.161 -.1c1.385 -.84 2.487 -1.17 3.322 -1.148l.164 .008l.147 .017l.076 .014l.05 .011l.144 .047a1 1 0 0 1 .53 .514a5.2 5.2 0 0 1 .397 2.91l-.047 .267l-.046 .196l.123 .163c.574 .795 .93 1.728 1.03 2.707l.023 .295l.007 .272c0 3.855 -1.659 5.883 -4.644 6.68l-.245 .061l-.132 .029l.014 .161l.008 .157l.004 .365l-.002 .213l-.003 3.834a1 1 0 0 1 -.883 .993l-.117 .007h-6a1 1 0 0 1 -.993 -.883l-.007 -.117v-.734c-1.818 .26 -3.03 -.424 -4.11 -1.878l-.535 -.766c-.28 -.396 -.455 -.579 -.589 -.644l-.048 -.019a1 1 0 0 1 .564 -1.918c.642 .188 1.074 .568 1.57 1.239l.538 .769c.76 1.079 1.36 1.459 2.609 1.191l.001 -.678l-.018 -.168a5.03 5.03 0 0 1 -.021 -.824l.017 -.185l.019 -.12l-.108 -.024c-2.976 -.71 -4.703 -2.573 -4.875 -6.139l-.01 -.31l-.004 -.292a5.6 5.6 0 0 1 .908 -3.051l.152 -.222l.122 -.163l-.045 -.196a5.2 5.2 0 0 1 .145 -2.642l.1 -.282l.106 -.253a1 1 0 0 1 .529 -.514l.144 -.047l.154 -.03z" stroke-width="0" fill="currentColor"></path>
    </symbol>
</svg>
