<svg width="130" height="91" viewBox="0 0 130 91" fill="none"
    xmlns="http://www.w3.org/2000/svg">
    <symbol id="main" viewBox="0 0 130 91">
        <path d="M54.552 20.04C54.552 23.6667 53.272 26.8027 50.712 29.448C48.152 32.0507 44.4187 33.928 39.512 35.08C42.1573 35.8053 44.1627 37 45.528 38.664C46.8933 40.2853 47.576 42.1627 47.576 44.296C47.576 47.6667 46.5093 50.5893 44.376 53.064C42.2853 55.5387 39.2133 57.4587 35.16 58.824C31.1067 60.1467 26.2213 60.808 20.504 60.808C18.3707 60.808 16.664 60.744 15.384 60.616C15.3413 61.8107 14.8293 62.7067 13.848 63.304C12.8667 63.9013 11.608 64.2 10.072 64.2C8.536 64.2 7.46933 63.8587 6.872 63.176C6.31733 62.4933 6.08267 61.4907 6.168 60.168C6.552 54.1947 7.29867 47.944 8.408 41.416C9.51733 34.8453 10.9253 28.5093 12.632 22.408C12.9307 21.3413 13.528 20.5947 14.424 20.168C15.32 19.7413 16.4933 19.528 17.944 19.528C20.5467 19.528 21.848 20.2533 21.848 21.704C21.848 22.3013 21.72 22.984 21.464 23.752C20.3547 27.08 19.2453 31.6027 18.136 37.32C17.0267 42.9947 16.2373 48.4133 15.768 53.576C17.816 53.7467 19.48 53.832 20.76 53.832C26.7333 53.832 31.1067 52.9787 33.88 51.272C36.696 49.5227 38.104 47.304 38.104 44.616C38.104 42.7387 37.2933 41.16 35.672 39.88C34.0933 38.6 31.4267 37.896 27.672 37.768C26.8187 37.7253 26.2213 37.512 25.88 37.128C25.5387 36.744 25.368 36.1253 25.368 35.272C25.368 34.0347 25.624 33.032 26.136 32.264C26.648 31.496 27.5867 31.0907 28.952 31.048C31.9813 30.9627 34.712 30.5147 37.144 29.704C39.6187 28.8933 41.56 27.7627 42.968 26.312C44.376 24.8187 45.08 23.0907 45.08 21.128C45.08 18.6533 43.864 16.712 41.432 15.304C39 13.8533 35.2667 13.128 30.232 13.128C25.6667 13.128 21.2507 13.7253 16.984 14.92C12.7173 16.072 9.09067 17.544 6.104 19.336C4.73867 20.1467 3.58667 20.552 2.648 20.552C1.88 20.552 1.28267 20.296 0.856 19.784C0.472 19.2293 0.28 18.5467 0.28 17.736C0.28 16.6693 0.493333 15.752 0.92 14.984C1.38933 14.216 2.47733 13.3413 4.184 12.36C7.768 10.312 11.9707 8.712 16.792 7.56C21.6133 6.408 26.5413 5.832 31.576 5.832C39.2987 5.832 45.0587 7.13333 48.856 9.736C52.6533 12.3387 54.552 15.7733 54.552 20.04ZM79.2655 46.728C79.8202 46.728 80.2468 46.984 80.5455 47.496C80.8868 48.008 81.0575 48.712 81.0575 49.608C81.0575 51.3147 80.6522 52.6373 79.8415 53.576C78.0068 55.8373 76.0015 57.6933 73.8255 59.144C71.6922 60.5947 69.2602 61.32 66.5295 61.32C62.7748 61.32 59.9802 59.6133 58.1455 56.2C56.3535 52.7867 55.4575 48.3707 55.4575 42.952C55.4575 37.7467 56.1188 31.816 57.4415 25.16C58.8068 18.504 60.7908 12.7867 63.3935 8.008C66.0388 3.22933 69.1748 0.839996 72.8015 0.839996C74.8495 0.839996 76.4495 1.8 77.6015 3.72C78.7962 5.59733 79.3935 8.30667 79.3935 11.848C79.3935 16.9253 77.9855 22.8133 75.1695 29.512C72.3535 36.2107 68.5348 42.8453 63.7135 49.416C64.0122 51.1653 64.5028 52.424 65.1855 53.192C65.8682 53.9173 66.7642 54.28 67.8735 54.28C69.6228 54.28 71.1588 53.7893 72.4815 52.808C73.8042 51.784 75.4895 50.056 77.5375 47.624C78.0495 47.0267 78.6255 46.728 79.2655 46.728ZM71.3935 7.176C70.4122 7.176 69.3028 8.94667 68.0655 12.488C66.8282 16.0293 65.7402 20.424 64.8015 25.672C63.8628 30.92 63.3508 35.9547 63.2655 40.776C66.2948 35.784 68.7055 30.792 70.4975 25.8C72.2895 20.7653 73.1855 16.1787 73.1855 12.04C73.1855 8.79733 72.5882 7.176 71.3935 7.176ZM108.525 41.352C109.079 41.352 109.506 41.6293 109.805 42.184C110.103 42.7387 110.253 43.4427 110.253 44.296C110.253 46.344 109.634 47.56 108.397 47.944C105.837 48.84 103.021 49.352 99.9485 49.48C99.1378 53.064 97.5378 55.944 95.1485 58.12C92.7592 60.2533 90.0498 61.32 87.0205 61.32C84.4605 61.32 82.2632 60.7013 80.4285 59.464C78.6365 58.2267 77.2712 56.584 76.3325 54.536C75.3938 52.488 74.9245 50.2693 74.9245 47.88C74.9245 44.6373 75.5432 41.7573 76.7805 39.24C78.0178 36.68 79.7245 34.696 81.9005 33.288C84.0765 31.8373 86.4872 31.112 89.1325 31.112C92.3752 31.112 94.9778 32.2427 96.9405 34.504C98.9458 36.7227 100.119 39.4747 100.461 42.76C102.466 42.632 104.855 42.2053 107.629 41.48C107.97 41.3947 108.269 41.352 108.525 41.352ZM87.5325 54.536C88.8978 54.536 90.0712 53.9813 91.0525 52.872C92.0765 51.7627 92.7592 50.1627 93.1005 48.072C91.7778 47.176 90.7538 46.0027 90.0285 44.552C89.3458 43.1013 89.0045 41.5653 89.0045 39.944C89.0045 39.2613 89.0685 38.5787 89.1965 37.896H88.8765C87.1698 37.896 85.7405 38.728 84.5885 40.392C83.4792 42.0133 82.9245 44.3173 82.9245 47.304C82.9245 49.6507 83.3725 51.4427 84.2685 52.68C85.2072 53.9173 86.2952 54.536 87.5325 54.536ZM126.456 33.288C127.522 33.288 128.269 33.4587 128.696 33.8C129.165 34.0987 129.4 34.7173 129.4 35.656C129.4 36.168 129.378 36.5733 129.336 36.872C129.165 38.1947 128.632 41.608 127.736 47.112C127.096 50.824 126.69 53.2773 126.52 54.472C124.898 65.48 122.701 74.1627 119.928 80.52C117.197 86.92 113.528 90.12 108.92 90.12C106.744 90.12 104.973 89.4373 103.608 88.072C102.242 86.7493 101.559 85 101.559 82.824C101.559 79.7947 102.754 76.5307 105.144 73.032C107.533 69.576 112.013 65.3093 118.583 60.232L118.968 57.736C118.242 58.888 117.282 59.784 116.088 60.424C114.936 61.0213 113.784 61.32 112.632 61.32C109.986 61.32 107.874 60.36 106.296 58.44C104.717 56.52 103.928 54.0027 103.928 50.888C103.928 47.4747 104.717 44.2533 106.296 41.224C107.874 38.152 109.965 35.6987 112.568 33.864C115.213 31.9867 118.008 31.048 120.952 31.048C121.89 31.048 122.509 31.24 122.808 31.624C123.149 31.9653 123.426 32.6053 123.64 33.544C124.45 33.3733 125.389 33.288 126.456 33.288ZM114.936 54.856C115.917 54.856 116.856 54.2587 117.752 53.064C118.648 51.8693 119.288 50.1627 119.672 47.944L121.72 37C119.97 37.0427 118.349 37.7253 116.856 39.048C115.362 40.328 114.168 42.0347 113.272 44.168C112.376 46.3013 111.928 48.5627 111.928 50.952C111.928 52.2747 112.184 53.256 112.696 53.896C113.25 54.536 113.997 54.856 114.936 54.856ZM109.624 83.912C110.69 83.912 111.885 82.632 113.208 80.072C114.573 77.512 115.874 73.4373 117.112 67.848C113.826 70.664 111.458 73.2027 110.008 75.464C108.557 77.7253 107.832 79.7093 107.832 81.416C107.832 82.1413 107.96 82.7387 108.216 83.208C108.514 83.6773 108.984 83.912 109.624 83.912Z" fill="currentColor">
        </path>
    </symbol>
</svg>