<svg width="337" height="63" viewBox="0 0 337 63" fill="none"
    xmlns="http://www.w3.org/2000/svg">
    <symbol id="main" viewBox="0 0 337 63">
        <path d="M57.768 7.944C58.9627 8.11466 59.7733 8.47733 60.2 9.032C60.6693 9.58666 60.904 10.312 60.904 11.208C60.904 14.152 59.3253 15.5173 56.168 15.304L53.928 15.112C51.4107 14.8987 48.8933 14.728 46.376 14.6C43.9013 14.472 41.2987 14.408 38.568 14.408H35.688C35.176 20.7227 34.6427 26.4827 34.088 31.688L45.096 31.496C46.6747 31.496 47.72 31.7733 48.232 32.328C48.7867 32.8827 49.064 33.6293 49.064 34.568C49.064 36.0187 48.6373 37.1707 47.784 38.024C46.9307 38.8347 45.7147 39.24 44.136 39.24H33.192L32.808 41.992C31.912 49.032 29.992 54.0453 27.048 57.032C24.1467 60.0187 20.136 61.512 15.016 61.512C12.1147 61.512 9.448 60.8933 7.016 59.656C4.584 58.376 2.792 56.84 1.64 55.048C1.17067 54.3227 0.936 53.448 0.936 52.424C0.936 51.4 1.17067 50.504 1.64 49.736C2.152 48.968 2.77067 48.584 3.496 48.584C4.008 48.584 4.49867 48.7547 4.968 49.096C5.48 49.4373 6.12 50.0987 6.888 51.08C8.936 53.768 11.4747 55.112 14.504 55.112C16.936 55.112 18.9627 54.1307 20.584 52.168C22.248 50.1627 23.3147 47.0267 23.784 42.76L24.168 39.24H21.096C20.1147 39.24 19.2613 38.9627 18.536 38.408C17.8533 37.8533 17.512 37.064 17.512 36.04C17.512 34.7173 17.8533 33.7147 18.536 33.032C19.2187 32.3067 20.2213 31.944 21.544 31.944C22.7387 31.944 23.912 31.9227 25.064 31.88C25.576 27.1867 26.1307 21.4907 26.728 14.792C22.12 15.2187 18.8773 15.9653 17 17.032C15.1227 18.0987 14.184 19.6773 14.184 21.768C14.184 23.2187 14.6107 24.6053 15.464 25.928C15.72 26.312 15.848 26.696 15.848 27.08C15.848 27.848 15.4213 28.5307 14.568 29.128C13.7147 29.6827 12.7547 29.96 11.688 29.96C10.536 29.96 9.55467 29.6187 8.744 28.936C8.232 28.5093 7.74133 27.6347 7.272 26.312C6.80267 24.9893 6.568 23.5173 6.568 21.896C6.568 16.6053 9.27733 12.7653 14.696 10.376C20.1573 7.98666 28.1147 6.792 38.568 6.792C45.8213 6.792 52.2213 7.176 57.768 7.944ZM55.2565 61.32C52.6112 61.32 50.4992 60.36 48.9205 58.44C47.3418 56.52 46.5525 54.0027 46.5525 50.888C46.5525 47.4747 47.3418 44.2533 48.9205 41.224C50.4992 38.152 52.5898 35.6987 55.1925 33.864C57.8378 31.9867 60.6325 31.048 63.5765 31.048C64.5152 31.048 65.1338 31.24 65.4325 31.624C65.7738 31.9653 66.0512 32.6053 66.2645 33.544C67.1605 33.3733 68.0992 33.288 69.0805 33.288C71.1712 33.288 72.2165 34.0347 72.2165 35.528C72.2165 36.424 71.8965 38.5573 71.2565 41.928C70.2752 46.8347 69.7845 50.248 69.7845 52.168C69.7845 52.808 69.9338 53.32 70.2325 53.704C70.5738 54.088 71.0005 54.28 71.5125 54.28C72.3232 54.28 73.3045 53.768 74.4565 52.744C75.6085 51.6773 77.1658 49.9707 79.1285 47.624C79.6405 47.0267 80.2165 46.728 80.8565 46.728C81.4112 46.728 81.8378 46.984 82.1365 47.496C82.4778 48.008 82.6485 48.712 82.6485 49.608C82.6485 51.3147 82.2432 52.6373 81.4325 53.576C79.6832 55.752 77.8272 57.5867 75.8645 59.08C73.9018 60.5733 72.0032 61.32 70.1685 61.32C68.7605 61.32 67.4592 60.8507 66.2645 59.912C65.1125 58.9307 64.2378 57.608 63.6405 55.944C61.4218 59.528 58.6272 61.32 55.2565 61.32ZM57.5605 54.856C58.4992 54.856 59.3952 54.3013 60.2485 53.192C61.1018 52.0827 61.7205 50.6107 62.1045 48.776L64.4725 37C62.6805 37.0427 61.0165 37.7253 59.4805 39.048C57.9872 40.328 56.7925 42.0347 55.8965 44.168C55.0005 46.3013 54.5525 48.5627 54.5525 50.952C54.5525 52.2747 54.8085 53.256 55.3205 53.896C55.8752 54.536 56.6218 54.856 57.5605 54.856ZM105.991 46.728C106.546 46.728 106.972 46.984 107.271 47.496C107.612 48.008 107.783 48.712 107.783 49.608C107.783 51.3147 107.378 52.6373 106.567 53.576C104.732 55.8373 102.727 57.6933 100.551 59.144C98.375 60.5947 95.879 61.32 93.063 61.32C84.359 61.32 80.007 55.1973 80.007 42.952C80.007 41.0747 80.071 39.176 80.199 37.256H77.703C76.423 37.256 75.5483 37.0213 75.079 36.552C74.6523 36.0827 74.439 35.336 74.439 34.312C74.439 31.9227 75.399 30.728 77.319 30.728H80.967C81.6923 26.0347 82.8017 21.7467 84.295 17.864C85.7883 13.9813 87.5803 10.888 89.671 8.584C91.8043 6.28 94.087 5.128 96.519 5.128C98.311 5.128 99.719 5.91733 100.743 7.496C101.767 9.07467 102.279 11.0587 102.279 13.448C102.279 20.0613 99.5057 25.8213 93.959 30.728H101.127C101.81 30.728 102.3 30.8773 102.599 31.176C102.898 31.4747 103.047 32.0293 103.047 32.84C103.047 35.784 100.636 37.256 95.815 37.256H88.007C87.9217 39.3893 87.879 41.0533 87.879 42.248C87.879 46.6853 88.391 49.8 89.415 51.592C90.4817 53.384 92.1457 54.28 94.407 54.28C96.2417 54.28 97.863 53.7253 99.271 52.616C100.679 51.5067 102.343 49.8427 104.263 47.624C104.775 47.0267 105.351 46.728 105.991 46.728ZM94.791 11.272C94.151 11.272 93.4257 12.0827 92.615 13.704C91.847 15.2827 91.1003 17.5013 90.375 20.36C89.6923 23.176 89.1163 26.312 88.647 29.768C91.1643 27.592 93.0417 25.16 94.279 22.472C95.559 19.7413 96.199 17.2667 96.199 15.048C96.199 12.5307 95.7297 11.272 94.791 11.272ZM136.62 41.352C137.175 41.352 137.601 41.6293 137.9 42.184C138.199 42.7387 138.348 43.4427 138.348 44.296C138.348 45.3627 138.199 46.1947 137.9 46.792C137.601 47.3467 137.132 47.7307 136.492 47.944C133.932 48.84 131.116 49.352 128.044 49.48C127.191 53.0213 125.569 55.88 123.18 58.056C120.833 60.232 118.231 61.32 115.372 61.32C111.063 61.32 107.927 59.6773 105.964 56.392C104.001 53.1067 103.02 48.3493 103.02 42.12C103.02 36.616 103.703 30.6427 105.068 24.2C106.433 17.7147 108.417 12.2107 111.02 7.688C113.665 3.12266 116.801 0.839996 120.428 0.839996C122.391 0.839996 123.969 1.69333 125.164 3.4C126.359 5.064 126.956 7.24 126.956 9.928C126.956 13.4267 126.295 16.904 124.972 20.36C123.649 23.816 121.452 27.4427 118.38 31.24C121.239 31.4533 123.564 32.648 125.356 34.824C127.148 36.9573 128.215 39.6027 128.556 42.76C130.561 42.632 132.951 42.2053 135.724 41.48C135.98 41.3947 136.279 41.352 136.62 41.352ZM118.956 7.176C118.103 7.176 117.164 8.456 116.14 11.016C115.159 13.5333 114.241 16.968 113.388 21.32C112.535 25.672 111.895 30.4293 111.468 35.592C114.284 30.4293 116.524 25.8853 118.188 21.96C119.895 17.992 120.748 14.472 120.748 11.4C120.748 10.0347 120.577 8.98933 120.236 8.264C119.937 7.53866 119.511 7.176 118.956 7.176ZM115.628 54.536C116.951 54.536 118.124 53.9813 119.148 52.872C120.172 51.7627 120.855 50.1627 121.196 48.072C119.873 47.176 118.849 46.0027 118.124 44.552C117.441 43.1013 117.1 41.5653 117.1 39.944C117.1 39.3467 117.185 38.536 117.356 37.512H117.164C115.415 37.512 113.943 38.3867 112.748 40.136C111.596 41.8427 111.02 44.1467 111.02 47.048C111.02 49.48 111.468 51.336 112.364 52.616C113.303 53.896 114.391 54.536 115.628 54.536ZM165.462 41.352C166.017 41.352 166.443 41.6293 166.742 42.184C167.041 42.7387 167.19 43.4427 167.19 44.296C167.19 46.344 166.571 47.56 165.334 47.944C162.774 48.84 159.958 49.352 156.886 49.48C156.075 53.064 154.475 55.944 152.086 58.12C149.697 60.2533 146.987 61.32 143.958 61.32C141.398 61.32 139.201 60.7013 137.366 59.464C135.574 58.2267 134.209 56.584 133.27 54.536C132.331 52.488 131.862 50.2693 131.862 47.88C131.862 44.6373 132.481 41.7573 133.718 39.24C134.955 36.68 136.662 34.696 138.838 33.288C141.014 31.8373 143.425 31.112 146.07 31.112C149.313 31.112 151.915 32.2427 153.878 34.504C155.883 36.7227 157.057 39.4747 157.398 42.76C159.403 42.632 161.793 42.2053 164.566 41.48C164.907 41.3947 165.206 41.352 165.462 41.352ZM144.47 54.536C145.835 54.536 147.009 53.9813 147.99 52.872C149.014 51.7627 149.697 50.1627 150.038 48.072C148.715 47.176 147.691 46.0027 146.966 44.552C146.283 43.1013 145.942 41.5653 145.942 39.944C145.942 39.2613 146.006 38.5787 146.134 37.896H145.814C144.107 37.896 142.678 38.728 141.526 40.392C140.417 42.0133 139.862 44.3173 139.862 47.304C139.862 49.6507 140.31 51.4427 141.206 52.68C142.145 53.9173 143.233 54.536 144.47 54.536ZM195.745 41.352C196.3 41.352 196.726 41.6293 197.025 42.184C197.324 42.7387 197.473 43.4427 197.473 44.296C197.473 45.3627 197.324 46.1947 197.025 46.792C196.726 47.3467 196.257 47.7307 195.617 47.944C193.057 48.84 190.241 49.352 187.169 49.48C186.316 53.0213 184.694 55.88 182.305 58.056C179.958 60.232 177.356 61.32 174.497 61.32C170.188 61.32 167.052 59.6773 165.089 56.392C163.126 53.1067 162.145 48.3493 162.145 42.12C162.145 36.616 162.828 30.6427 164.193 24.2C165.558 17.7147 167.542 12.2107 170.145 7.688C172.79 3.12266 175.926 0.839996 179.553 0.839996C181.516 0.839996 183.094 1.69333 184.289 3.4C185.484 5.064 186.081 7.24 186.081 9.928C186.081 13.4267 185.42 16.904 184.097 20.36C182.774 23.816 180.577 27.4427 177.505 31.24C180.364 31.4533 182.689 32.648 184.481 34.824C186.273 36.9573 187.34 39.6027 187.681 42.76C189.686 42.632 192.076 42.2053 194.849 41.48C195.105 41.3947 195.404 41.352 195.745 41.352ZM178.081 7.176C177.228 7.176 176.289 8.456 175.265 11.016C174.284 13.5333 173.366 16.968 172.513 21.32C171.66 25.672 171.02 30.4293 170.593 35.592C173.409 30.4293 175.649 25.8853 177.313 21.96C179.02 17.992 179.873 14.472 179.873 11.4C179.873 10.0347 179.702 8.98933 179.361 8.264C179.062 7.53866 178.636 7.176 178.081 7.176ZM174.753 54.536C176.076 54.536 177.249 53.9813 178.273 52.872C179.297 51.7627 179.98 50.1627 180.321 48.072C178.998 47.176 177.974 46.0027 177.249 44.552C176.566 43.1013 176.225 41.5653 176.225 39.944C176.225 39.3467 176.31 38.536 176.481 37.512H176.289C174.54 37.512 173.068 38.3867 171.873 40.136C170.721 41.8427 170.145 44.1467 170.145 47.048C170.145 49.48 170.593 51.336 171.489 52.616C172.428 53.896 173.516 54.536 174.753 54.536ZM196.491 61.32C194.87 61.32 193.718 60.4667 193.035 58.76C192.395 57.0533 192.075 54.3227 192.075 50.568C192.075 45.0213 192.864 39.752 194.443 34.76C194.827 33.5227 195.446 32.6267 196.299 32.072C197.195 31.4747 198.432 31.176 200.011 31.176C200.864 31.176 201.462 31.2827 201.803 31.496C202.144 31.7093 202.315 32.1147 202.315 32.712C202.315 33.3947 201.995 34.9307 201.355 37.32C200.928 39.0267 200.587 40.52 200.331 41.8C200.075 43.0373 199.862 44.5947 199.691 46.472C200.843 43.144 202.208 40.328 203.787 38.024C205.408 35.72 207.051 34.0133 208.715 32.904C210.422 31.752 212.022 31.176 213.515 31.176C215.008 31.176 216.054 31.5173 216.651 32.2C217.291 32.8827 217.611 33.928 217.611 35.336C217.611 36.7013 217.206 39.176 216.395 42.76C216.054 44.296 215.819 45.448 215.691 46.216C217.824 40.968 220.192 37.1493 222.795 34.76C225.398 32.3707 227.83 31.176 230.091 31.176C232.864 31.176 234.251 32.5627 234.251 35.336C234.251 37 233.782 40.008 232.843 44.36C232.032 48.072 231.627 50.5253 231.627 51.72C231.627 53.4267 232.246 54.28 233.483 54.28C234.336 54.28 235.339 53.768 236.491 52.744C237.686 51.6773 239.264 49.9707 241.227 47.624C241.739 47.0267 242.315 46.728 242.955 46.728C243.51 46.728 243.936 46.984 244.235 47.496C244.576 48.008 244.747 48.712 244.747 49.608C244.747 51.3147 244.342 52.6373 243.531 53.576C241.696 55.8373 239.712 57.6933 237.579 59.144C235.488 60.5947 233.099 61.32 230.411 61.32C228.235 61.32 226.592 60.7013 225.483 59.464C224.374 58.184 223.819 56.3493 223.819 53.96C223.819 52.7653 224.118 50.632 224.715 47.56C225.27 44.872 225.547 43.016 225.547 41.992C225.547 41.3093 225.312 40.968 224.843 40.968C224.288 40.968 223.499 41.6933 222.475 43.144C221.451 44.552 220.427 46.4293 219.403 48.776C218.379 51.1227 217.547 53.5973 216.907 56.2C216.438 58.248 215.883 59.6133 215.243 60.296C214.646 60.9787 213.664 61.32 212.299 61.32C210.891 61.32 209.824 60.6587 209.099 59.336C208.416 57.9707 208.075 56.328 208.075 54.408C208.075 52.7867 208.288 50.44 208.715 47.368C209.056 44.6373 209.227 42.8453 209.227 41.992C209.227 41.3093 208.992 40.968 208.523 40.968C207.883 40.968 207.072 41.736 206.091 43.272C205.11 44.808 204.15 46.7707 203.211 49.16C202.315 51.5493 201.59 53.896 201.035 56.2C200.566 58.2053 200.011 59.5707 199.371 60.296C198.774 60.9787 197.814 61.32 196.491 61.32ZM247.444 61.32C244.799 61.32 242.687 60.36 241.108 58.44C239.529 56.52 238.74 54.0027 238.74 50.888C238.74 47.4747 239.529 44.2533 241.108 41.224C242.687 38.152 244.777 35.6987 247.38 33.864C250.025 31.9867 252.82 31.048 255.764 31.048C256.703 31.048 257.321 31.24 257.62 31.624C257.961 31.9653 258.239 32.6053 258.452 33.544C259.348 33.3733 260.287 33.288 261.268 33.288C263.359 33.288 264.404 34.0347 264.404 35.528C264.404 36.424 264.084 38.5573 263.444 41.928C262.463 46.8347 261.972 50.248 261.972 52.168C261.972 52.808 262.121 53.32 262.42 53.704C262.761 54.088 263.188 54.28 263.7 54.28C264.511 54.28 265.492 53.768 266.644 52.744C267.796 51.6773 269.353 49.9707 271.316 47.624C271.828 47.0267 272.404 46.728 273.044 46.728C273.599 46.728 274.025 46.984 274.324 47.496C274.665 48.008 274.836 48.712 274.836 49.608C274.836 51.3147 274.431 52.6373 273.62 53.576C271.871 55.752 270.015 57.5867 268.052 59.08C266.089 60.5733 264.191 61.32 262.356 61.32C260.948 61.32 259.647 60.8507 258.452 59.912C257.3 58.9307 256.425 57.608 255.828 55.944C253.609 59.528 250.815 61.32 247.444 61.32ZM249.748 54.856C250.687 54.856 251.583 54.3013 252.436 53.192C253.289 52.0827 253.908 50.6107 254.292 48.776L256.66 37C254.868 37.0427 253.204 37.7253 251.668 39.048C250.175 40.328 248.98 42.0347 248.084 44.168C247.188 46.3013 246.74 48.5627 246.74 50.952C246.74 52.2747 246.996 53.256 247.508 53.896C248.063 54.536 248.809 54.856 249.748 54.856ZM274.179 61.32C272.557 61.32 271.405 60.4667 270.723 58.76C270.083 57.0533 269.763 54.3227 269.763 50.568C269.763 45.0213 270.552 39.752 272.131 34.76C272.515 33.5227 273.133 32.6267 273.987 32.072C274.883 31.4747 276.12 31.176 277.699 31.176C278.552 31.176 279.149 31.2827 279.491 31.496C279.832 31.7093 280.003 32.1147 280.003 32.712C280.003 33.3947 279.683 34.9307 279.043 37.32C278.616 39.0267 278.275 40.52 278.019 41.8C277.763 43.08 277.549 44.6587 277.379 46.536C278.787 42.8667 280.365 39.88 282.115 37.576C283.864 35.272 285.571 33.6293 287.235 32.648C288.941 31.6667 290.499 31.176 291.907 31.176C293.272 31.176 294.296 31.5387 294.979 32.264C295.704 32.9467 296.067 33.9707 296.067 35.336C296.067 36.4453 295.832 38.536 295.363 41.608C294.936 44.2107 294.595 46.6853 294.339 49.032C294.083 51.336 293.955 53.9173 293.955 56.776C293.955 58.3973 293.613 59.5707 292.931 60.296C292.291 60.9787 291.224 61.32 289.731 61.32C288.323 61.32 287.299 60.9573 286.659 60.232C286.019 59.5067 285.699 58.4187 285.699 56.968C285.699 55.2613 285.997 52.4453 286.595 48.52C287.107 45.1067 287.363 42.9307 287.363 41.992C287.363 41.3093 287.128 40.968 286.659 40.968C286.104 40.968 285.315 41.6933 284.291 43.144C283.309 44.552 282.285 46.4293 281.219 48.776C280.195 51.1227 279.363 53.5973 278.723 56.2C278.253 58.2053 277.699 59.5707 277.059 60.296C276.461 60.9787 275.501 61.32 274.179 61.32ZM307.242 22.92C306.303 22.92 305.556 22.7067 305.002 22.28C304.447 21.8533 304.17 21.1707 304.17 20.232C304.17 19.848 304.234 19.4 304.362 18.888C304.831 16.9253 305.172 15.112 305.385 13.448C305.642 11.784 305.77 9.928 305.77 7.88C305.77 5.74666 306.26 4.104 307.242 2.952C308.266 1.8 309.567 1.224 311.146 1.224C312.682 1.224 313.834 1.65067 314.602 2.504C315.412 3.31466 315.818 4.424 315.818 5.832C315.818 7.32533 315.37 9.30933 314.474 11.784C313.578 14.2587 312.49 16.6693 311.21 19.016C310.356 20.5947 309.674 21.64 309.162 22.152C308.692 22.664 308.052 22.92 307.242 22.92ZM327.039 62.728C324.82 62.728 323.113 62.216 321.919 61.192C320.767 60.168 320.191 59.016 320.191 57.736C320.191 56.6267 320.596 55.6667 321.407 54.856C322.217 54.0453 323.412 53.64 324.991 53.64C325.545 53.64 326.185 53.704 326.911 53.832C327.679 53.9173 328.255 53.9813 328.639 54.024C328.596 52.9147 328.34 51.8693 327.871 50.888C327.444 49.9067 326.889 48.968 326.207 48.072C325.524 47.1333 324.884 46.3227 324.287 45.64C322.964 48.1573 321.641 50.248 320.319 51.912C319.039 53.576 317.631 55.1547 316.095 56.648C315.327 57.416 314.516 57.8 313.663 57.8C312.98 57.8 312.425 57.5653 311.998 57.096C311.572 56.584 311.358 55.9653 311.358 55.24C311.358 54.3867 311.657 53.5973 312.255 52.872L313.087 51.848C315.433 48.9467 317.204 46.5573 318.399 44.68C319.167 43.4427 319.935 41.9707 320.703 40.264C321.513 38.5573 322.559 36.232 323.839 33.288C324.649 31.4107 326.335 30.472 328.895 30.472C330.089 30.472 330.921 30.5787 331.391 30.792C331.86 31.0053 332.095 31.3467 332.095 31.816C332.095 32.072 332.009 32.4773 331.839 33.032C331.668 33.5867 331.433 34.1413 331.135 34.696C330.367 36.232 329.983 37.5333 329.983 38.6C329.983 39.24 330.196 39.944 330.623 40.712C331.092 41.48 331.796 42.44 332.735 43.592C334.1 45.384 335.124 46.92 335.807 48.2C336.532 49.4373 336.895 50.8027 336.895 52.296C336.895 54.088 336.468 55.7947 335.615 57.416C334.804 58.9947 333.652 60.2747 332.159 61.256C330.665 62.2373 328.959 62.728 327.039 62.728Z" fill="currentColor"></path>
    </symbol>
</svg>